<svg width="42" height="42" viewBox="0 0 42 42" fill="none" xmlns="http://www.w3.org/2000/svg"><circle cx="21" cy="21" r="21" fill="#D52D38"/><path d="M30.1667 8.53542C31.1318 8.9699 32.0917 9.70331 32.5085 10.8665C33.4001 13.355 33.2921 19.6904 26.7595 26.7151C20.2268 33.7398 13.2098 33.4848 10.9109 32.4641C9.76614 31.9559 8.96807 30.91 8.50073 29.9065L15.8152 26.0178C16.3234 26.7805 16.9342 27.4566 17.7966 27.346C19.7186 27.0987 21.0358 26.2094 23.5701 23.5257C26.1045 20.8418 27.1431 19.284 27.3904 17.7522C27.5133 16.9909 26.765 16.3928 25.9558 15.8294L30.1667 8.53542ZM14.1375 24.1067C14.5372 24.0429 14.8824 24.5227 15.2605 25.1321L8.14038 28.9182C7.97759 28.3123 7.95727 27.8136 8.07983 27.593C8.44885 26.9302 13.0767 24.2764 14.1375 24.1067ZM27.6375 8.03542C27.8608 7.96554 28.4577 7.99413 29.1677 8.18093L25.0994 15.2288C24.6106 14.8665 24.2185 14.5006 24.1511 14.093C23.9438 12.8375 27.0292 8.22719 27.6375 8.03542Z" fill="white"/></svg>