<svg width="42" height="42" viewBox="0 0 42 42" fill="none" xmlns="http://www.w3.org/2000/svg"><circle cx="21" cy="21" r="21" fill="#D52D38"/><path d="M21 8C28.1797 8 34 13.8203 34 21C34 23.8705 33.0688 26.523 31.4932 28.6738L34.0078 34.0469L27.9229 32.0039C25.9182 33.2677 23.5448 34 21 34C13.8203 34 8 28.1797 8 21C8 13.8203 13.8203 8 21 8ZM18.959 24.502L18.96 27.833H22.7354V24.502H18.959ZM21.2969 14C19.5653 14.0001 18.2804 14.4039 17.4424 15.2109C16.6045 16.018 16.1237 17.0838 16 18.4072L19.5996 18.8525C19.68 18.1292 19.864 17.6218 20.1514 17.3311C20.439 17.0404 20.8031 16.8945 21.2422 16.8945C21.6501 16.8946 21.9543 16.9892 22.1553 17.1777C22.3563 17.3664 22.457 17.6305 22.457 17.9707C22.457 18.3109 22.2061 18.6855 21.7051 19.0938C20.7653 19.8728 20.1606 20.4174 19.8916 20.7266C19.6228 21.0356 19.4202 21.377 19.2842 21.751C19.1481 22.1252 19.0801 22.613 19.0801 23.2129V23.5654H22.6055C22.6055 23.0831 22.6877 22.6916 22.8516 22.3916C23.0155 22.0916 23.4095 21.694 24.0342 21.1992C24.9308 20.4943 25.5247 19.8977 25.8154 19.4092C26.106 18.9207 26.2519 18.4132 26.252 17.8877C26.252 16.6198 25.6882 15.6055 24.5625 14.8447C23.7337 14.2819 22.6451 14 21.2969 14Z" fill="white"/></svg>