<svg width="68" height="29" viewBox="0 0 68 29" fill="none" xmlns="http://www.w3.org/2000/svg">
<path fill-rule="evenodd" clip-rule="evenodd" d="M8.78499 18.42C8.80284 19.5663 9.7617 20.0288 10.792 20.0288C11.5473 20.0288 12.5043 19.7324 12.5043 18.8074C12.5043 18.0129 11.4169 17.7343 9.5385 17.3272C8.02969 16.9933 6.51731 16.4576 6.51731 14.7756C6.51731 12.3347 8.61893 11.7062 10.6634 11.7062C12.7079 11.7062 14.6595 12.4079 14.8631 14.7578H12.3758C12.3026 13.74 11.5294 13.4632 10.5884 13.4632C9.99918 13.4632 9.13318 13.5739 9.13318 14.3524C9.13318 15.2952 10.6081 15.4238 12.099 15.7773C13.6275 16.1291 15.1202 16.6826 15.1202 18.4592C15.1202 20.9733 12.9454 21.7876 10.7723 21.7876C8.59929 21.7876 6.40839 20.9555 6.2959 18.4218H8.7832L8.78499 18.42Z" fill="#231F20"/>
<path fill-rule="evenodd" clip-rule="evenodd" d="M22.0266 16.8487C21.5838 17.2361 20.6642 17.2558 19.8536 17.404C19.0429 17.57 18.3055 17.8486 18.3055 18.8092C18.3055 19.7699 19.0608 20.0306 19.9071 20.0306C21.9516 20.0306 22.0266 18.4039 22.0266 17.8307V16.8505V16.8487ZM15.9842 14.9078C16.1307 12.4472 18.3233 11.708 20.4589 11.708C22.357 11.708 24.6425 12.133 24.6425 14.4257V19.4003C24.6425 20.2698 24.7336 21.1376 24.9728 21.5269H22.3212C22.2284 21.2323 22.1552 20.918 22.1373 20.6037C21.3088 21.4733 20.0911 21.7876 18.9322 21.7876C17.127 21.7876 15.6914 20.8823 15.6914 18.9199C15.6914 16.7576 17.3109 16.2398 18.9322 16.0166C20.5339 15.7773 22.0266 15.8327 22.0266 14.7596C22.0266 13.6329 21.2535 13.4632 20.3321 13.4632C19.3375 13.4632 18.693 13.8703 18.6001 14.9078H15.986H15.9842Z" fill="#231F20"/>
<path fill-rule="evenodd" clip-rule="evenodd" d="M25.7461 8.32257H28.362V13.2954H28.4173C29.0798 12.224 30.2225 11.7062 31.1992 11.7062C33.9812 11.7062 34.6811 13.2775 34.6811 15.6452V21.5251H32.0635V16.1255C32.0635 14.5524 31.6046 13.7775 30.3886 13.7775C28.9691 13.7775 28.362 14.5721 28.362 16.5148V21.5251H25.7461V8.32257Z" fill="#231F20"/>
<path fill-rule="evenodd" clip-rule="evenodd" d="M35.8237 11.9669H38.4396V21.5269H35.8237V11.9669ZM38.4396 10.4867H35.8237V8.32257H38.4396V10.4867Z" fill="#231F20"/>
<path d="M56.3188 23.7374H45.6749C43.3626 23.7374 41.4824 21.9143 41.4824 19.6717V12.3419C41.4824 10.101 43.3626 8.27614 45.6749 8.27614H51.6495C51.8459 8.27614 52.0066 8.43684 52.0066 8.63325C52.0066 8.82966 51.8459 8.99037 51.6495 8.99037H45.6749C43.7572 8.99037 42.1967 10.4938 42.1967 12.3419V19.6717C42.1967 21.5197 43.7572 23.0232 45.6749 23.0232H56.3188C58.2365 23.0232 59.7971 21.5197 59.7971 19.6717V12.3419C59.7971 11.4491 59.4364 10.6081 58.7828 9.976C58.6418 9.83851 58.6364 9.61353 58.7739 9.47069C58.9114 9.32963 59.1382 9.32427 59.2792 9.46176C60.0738 10.2296 60.5113 11.2527 60.5113 12.3401V19.6699C60.5113 21.9108 58.6311 23.7356 56.3188 23.7356V23.7374ZM50.4067 17.5558C50.4067 18.1129 50.3353 19.6949 48.3462 19.6949C47.5248 19.6949 46.7891 19.461 46.7891 18.5075C46.7891 17.554 47.5052 17.304 48.2944 17.1415C49.0818 16.9987 49.9764 16.979 50.4067 16.6023V17.5558ZM47.1445 14.8381C47.2355 13.8311 47.8623 13.4347 48.8283 13.4347C49.7246 13.4347 50.4764 13.5989 50.4764 14.6935C50.4764 15.788 49.0265 15.6827 47.4677 15.9148C45.891 16.1309 44.3161 16.6344 44.3161 18.736C44.3161 20.643 45.7124 21.5233 47.4677 21.5233C48.5944 21.5233 49.7782 21.218 50.5835 20.3734C50.6013 20.6787 50.6728 20.9841 50.762 21.2715H53.3404C53.1083 20.8948 53.019 20.0502 53.019 19.2056V14.3685C53.019 12.1401 50.7978 11.7259 48.9533 11.7259C46.8766 11.7259 44.7447 12.4455 44.6018 14.8363H47.1445V14.8381ZM54.3707 21.2733H56.9133V11.9794H54.3707V21.2733ZM55.742 11.4384C56.133 9.57246 56.5794 9.12607 58.4454 8.73503C58.5561 8.71182 58.5561 8.55469 58.4454 8.53147C56.5794 8.14043 56.133 7.69404 55.742 5.82812C55.7188 5.71741 55.5617 5.71741 55.5385 5.82812C55.1474 7.69404 54.701 8.14043 52.8351 8.53147C52.7244 8.55469 52.7244 8.71182 52.8351 8.73503C54.701 9.12607 55.1474 9.57246 55.5385 11.4384C55.5617 11.5491 55.7188 11.5491 55.742 11.4384Z" fill="url(#paint0_radial_5832_119004)"/>
<defs>
<radialGradient id="paint0_radial_5832_119004" cx="0" cy="0" r="1" gradientUnits="userSpaceOnUse" gradientTransform="translate(50.996 14.7417) scale(9.25998)">
<stop stop-color="#9133FB"/>
<stop offset="0.2" stop-color="#8F32F8"/>
<stop offset="0.34" stop-color="#8A31EE"/>
<stop offset="0.46" stop-color="#8330DF"/>
<stop offset="0.58" stop-color="#782EC9"/>
<stop offset="0.68" stop-color="#692BAC"/>
<stop offset="0.78" stop-color="#58288A"/>
<stop offset="0.88" stop-color="#432460"/>
<stop offset="0.97" stop-color="#2B2031"/>
<stop offset="1" stop-color="#231F20"/>
</radialGradient>
</defs>
</svg>
