<svg width="42" height="42" viewBox="0 0 42 42" fill="none" xmlns="http://www.w3.org/2000/svg"><path d="M2.73064 20.2735C3.103 10.7528 10.7528 3.103 20.2735 2.73064V0C9.24511 0.374185 0.374185 9.24511 0 20.2735H2.73064Z" fill="#00AEEF"/><path d="M39.2695 21.7246C38.8971 31.2453 31.2473 38.8951 21.7266 39.2675V41.9981C32.755 41.624 41.6259 32.753 42.0001 21.7246H39.2695Z" fill="#00AEEF"/><path d="M20.2755 39.2675C10.7548 38.8951 3.10495 31.2453 2.73259 21.7246H0.00195312C0.376138 32.753 9.24706 41.624 20.2755 41.9981V39.2675Z" fill="#00AEEF"/><path d="M15.9897 20.31V12.8409H13.4927V11.2054H20.3211V12.8409H17.8113V20.31H15.9897Z" fill="#00AEEF"/><path d="M21.3052 20.31V11.2054H25.0708C25.4322 11.2054 25.768 11.2493 26.0801 11.335C26.3923 11.4208 26.6661 11.5705 26.9052 11.7841C27.1425 11.9976 27.3286 12.2933 27.4655 12.6693C27.6006 13.0472 27.6681 13.5309 27.6681 14.1204C27.6681 14.5384 27.628 14.8962 27.5459 15.1901C27.4637 15.4858 27.356 15.7267 27.2191 15.9165C27.0841 16.1064 26.9307 16.2579 26.7573 16.3728C26.5858 16.4878 26.4087 16.5828 26.228 16.6558L27.9255 20.31H26.0674L24.6035 16.9387C24.5049 16.9387 24.3917 16.9387 24.2658 16.9332C24.138 16.9296 24.0084 16.9277 23.8788 16.9277H23.4846C23.3532 16.9277 23.2345 16.9241 23.1268 16.915V20.31H21.3052ZM23.1268 15.4748H24.7513C24.9156 15.4748 25.0635 15.4547 25.1949 15.4127C25.3263 15.3726 25.4413 15.2996 25.5399 15.1974C25.6384 15.0951 25.7133 14.9582 25.768 14.7848C25.821 14.6133 25.8483 14.3906 25.8483 14.1204C25.8483 13.8667 25.821 13.655 25.768 13.4871C25.7151 13.3191 25.6384 13.1877 25.5399 13.0928C25.4413 12.9979 25.3263 12.9322 25.1949 12.8957C25.0635 12.8592 24.9156 12.8409 24.7513 12.8409H23.1268V15.4748Z" fill="#00AEEF"/><path d="M23.4772 30.3455C22.9734 30.0754 22.5828 29.6957 22.3035 29.2102C22.0242 28.7247 21.8855 28.1625 21.8855 27.5291V24.8131C21.8855 24.187 22.0242 23.6321 22.3035 23.1502C22.5828 22.6683 22.9734 22.2942 23.4772 22.0277C23.9809 21.7612 24.5614 21.6279 25.2221 21.6279C25.8829 21.6279 26.4761 21.7612 26.9799 22.0277C27.4837 22.2942 27.8743 22.6683 28.1536 23.1502C28.4328 23.6321 28.5715 24.187 28.5715 24.8131V27.5291C28.5715 28.1643 28.4328 28.7265 28.1536 29.2175C27.8743 29.7085 27.4837 30.0863 26.9799 30.3528C26.4761 30.6193 25.8902 30.7526 25.2221 30.7526C24.5541 30.7526 23.9809 30.6175 23.4772 30.3474M26.352 28.7721C26.6386 28.4764 26.7828 28.0822 26.7828 27.5912V24.8003C26.7828 24.3093 26.6404 23.915 26.3575 23.6138C26.0745 23.3127 25.6949 23.163 25.2221 23.163C24.7494 23.163 24.3825 23.3127 24.0996 23.6138C23.8167 23.915 23.6743 24.3093 23.6743 24.8003V27.5912C23.6743 28.0822 23.8167 28.4746 24.0996 28.7721C24.3825 29.0678 24.7567 29.2157 25.2221 29.2157C25.6876 29.2157 26.0636 29.0678 26.352 28.7721Z" fill="#00AEEF"/><path d="M15.537 30.32C15.0369 30.0571 14.6499 29.6921 14.3761 29.223C14.1005 28.7539 13.9636 28.2099 13.9636 27.593V24.751C13.9636 24.1341 14.1005 23.5883 14.3761 23.1137C14.6499 22.6391 15.0387 22.2741 15.537 22.0167C16.0372 21.7594 16.6121 21.6298 17.2638 21.6298C17.9154 21.6298 18.4757 21.7557 18.9704 22.0112C19.4651 22.265 19.8502 22.6099 20.1258 23.0462C20.4014 23.4824 20.5383 23.9661 20.5383 24.4991V24.5886C20.5383 24.6305 20.5237 24.667 20.4945 24.6963C20.4653 24.7255 20.4288 24.7401 20.3868 24.7401H18.9029C18.8609 24.7401 18.8244 24.7255 18.7952 24.6963C18.766 24.667 18.7514 24.6305 18.7514 24.5886V24.5502C18.7514 24.1614 18.6163 23.8329 18.3462 23.5664C18.076 23.2999 17.7164 23.1667 17.2674 23.1667C16.8184 23.1667 16.4442 23.309 16.1704 23.592C15.8948 23.8749 15.7579 24.2454 15.7579 24.7017V27.6459C15.7579 28.1022 15.9057 28.4728 16.2014 28.7557C16.4971 29.0386 16.875 29.181 17.3313 29.181C17.7876 29.181 18.1216 29.0642 18.3845 28.8324C18.6473 28.6006 18.7787 28.2757 18.7787 27.8613V27.29C18.7787 27.248 18.7568 27.2261 18.7149 27.2261H17.293C17.251 27.2261 17.2145 27.2115 17.1853 27.1823C17.1561 27.1531 17.1415 27.1166 17.1415 27.0746V25.9064C17.1415 25.8644 17.1561 25.8279 17.1853 25.7987C17.2145 25.7695 17.251 25.7549 17.293 25.7549H20.3887C20.4306 25.7549 20.4671 25.7695 20.4963 25.7987C20.5256 25.8279 20.5402 25.8644 20.5402 25.9064V27.582C20.5402 28.2245 20.4051 28.7831 20.1331 29.2577C19.863 29.7322 19.4797 30.0936 18.985 30.3419C18.4904 30.5919 17.9172 30.7161 17.2656 30.7161C16.6139 30.7161 16.039 30.5847 15.5389 30.3236" fill="#00AEEF"/><path d="M36.1356 0.177002L37.4991 4.37335H41.9108L38.3424 6.96709L39.7059 11.1616L36.1356 8.5697L32.5671 11.1616L33.9306 6.96709L30.3604 4.37335H34.7721L36.1356 0.177002Z" fill="#00AEEF"/></svg>