<svg width="44" height="28" viewBox="0 0 44 28" fill="none" xmlns="http://www.w3.org/2000/svg"><g clip-path="url(#clip0_407_1291)"><path d="M0 0H44V29.3333H0V0Z" fill="#E30A17"/><path d="M20.4112 14.6667L27.0444 12.5117L22.9446 18.154V11.1795L27.0444 16.8217L20.4112 14.6667ZM20.8634 18.5881C20.0138 19.9307 18.7511 20.9611 17.2654 21.5241C15.7797 22.0872 14.1513 22.1525 12.6252 21.7102C11.0992 21.2679 9.75804 20.342 8.80366 19.0717C7.84927 17.8014 7.33325 16.2556 7.33325 14.6667C7.33325 13.0779 7.84927 11.532 8.80366 10.2617C9.75804 8.99146 11.0992 8.06552 12.6252 7.62323C14.1513 7.18095 15.7797 7.24625 17.2654 7.80931C18.7511 8.37236 20.0138 9.40272 20.8634 10.7453C20.07 9.86248 19.0275 9.24105 17.8735 8.96313C16.7195 8.6852 15.5084 8.76385 14.4001 9.18869C13.2917 9.61353 12.3383 10.3646 11.6658 11.3426C10.9932 12.3207 10.6332 13.4797 10.6332 14.6667C10.6332 15.8537 10.9932 17.0127 11.6658 17.9908C12.3383 18.9688 13.2917 19.7199 14.4001 20.1447C15.5084 20.5696 16.7195 20.6482 17.8735 20.3703C19.0275 20.0924 20.07 19.4709 20.8634 18.5881Z" fill="white"/></g><defs><clipPath id="clip0_407_1291"><rect width="44" height="28" fill="white"/></clipPath></defs></svg>