<svg width="44" height="28" viewBox="0 0 44 28" fill="none" xmlns="http://www.w3.org/2000/svg"><g clip-path="url(#clip0_407_1332)"><rect width="44" height="28" fill="#012169"/><g clip-path="url(#clip1_407_1332)"><path d="M-1 0V28H46V0H-1Z" fill="#012169"/><path d="M-1 0L46 28L-1 0ZM46 0L-1 28L46 0Z" fill="black"/><path d="M-1 0L46 28M46 0L-1 28" stroke="white" stroke-width="5.28"/><mask id="mask0_407_1332" style="mask-type:luminance" maskUnits="userSpaceOnUse" x="-1" y="0" width="47" height="28"><path d="M22.5 14H46V28L22.5 14ZM22.5 14V28H-1L22.5 14ZM22.5 14H-1V0L22.5 14ZM22.5 14V0H46L22.5 14Z" fill="white"/></mask><g mask="url(#mask0_407_1332)"><path d="M-1 0L46 28L-1 0ZM46 0L-1 28L46 0Z" fill="black"/><path d="M-1 0L46 28M46 0L-1 28" stroke="#C8102E" stroke-width="3.52"/></g><path d="M-1.93994 10.2667H18.7401V-0.93335H26.2601V10.2667H46.9401V17.7333H26.2601V28.9333H18.7401V17.7333H-1.93994V10.2667Z" fill="#C8102E" stroke="white" stroke-width="1.76"/></g></g><defs><clipPath id="clip0_407_1332"><rect width="44" height="28" fill="white"/></clipPath><clipPath id="clip1_407_1332"><rect width="47" height="28" fill="white" transform="translate(-1)"/></clipPath></defs></svg>