<svg width="75" height="16" viewBox="0 0 75 16" fill="none" xmlns="http://www.w3.org/2000/svg">
<g clip-path="url(#clip0_3927_15403)">
<rect width="75" height="16" fill="white"/>
<path fill-rule="evenodd" clip-rule="evenodd" d="M73.0592 0H70.9349H4.06503H1.94095H0V1.92398V2.90731V13.0927V14.0759V16H1.94095H4.06503H70.9349H73.0592H75V14.0759V13.0927V2.90731V1.92398V0H73.0592Z" fill="#FFE800"/>
<path fill-rule="evenodd" clip-rule="evenodd" d="M27.9713 5.47488H26.5225V4.27649H27.9713V5.47488Z" fill="black"/>
<path fill-rule="evenodd" clip-rule="evenodd" d="M3.72134 9.86922C3.73113 10.5041 4.2619 10.7603 4.83338 10.7603C5.25208 10.7603 5.78228 10.5961 5.78228 10.0842C5.78228 9.64357 5.18013 9.48983 4.13914 9.26461C3.30306 9.0798 2.46604 8.78321 2.46604 7.85108C2.46604 6.49927 3.63014 6.15079 4.76246 6.15079C5.91482 6.15079 6.97578 6.53982 7.08828 7.84105H5.71082C5.67016 7.27731 5.24182 7.1235 4.72115 7.1235C4.3948 7.1235 3.91532 7.18526 3.91532 7.61555C3.91532 8.13783 4.73179 8.20944 5.55781 8.40445C6.40453 8.59889 7.23156 8.90621 7.23156 9.88972C7.23156 11.2825 6.02713 11.7331 4.82287 11.7331C3.59895 11.7331 2.40545 11.2724 2.34375 9.86922H3.72134Z" fill="black"/>
<path fill-rule="evenodd" clip-rule="evenodd" d="M7.70969 7.92316C7.79088 6.56043 9.00491 6.15079 10.1884 6.15079C11.2402 6.15079 12.5053 6.3865 12.5053 7.65632V10.412C12.5053 10.8933 12.5558 11.3748 12.6883 11.5895H11.2194C11.1678 11.4261 11.1279 11.2522 11.1173 11.0779C10.6584 11.5594 9.9843 11.7331 9.34204 11.7331C8.34236 11.7331 7.54665 11.2314 7.54665 10.1452C7.54665 8.94716 8.44396 8.66059 9.34204 8.53731C10.2296 8.40445 11.056 8.43512 11.056 7.84105C11.056 7.2169 10.6277 7.1235 10.1172 7.1235C9.56663 7.1235 9.20966 7.34933 9.15784 7.92316H7.70969ZM11.056 8.99837C10.8111 9.21322 10.3009 9.22402 9.85243 9.30587C9.40322 9.39814 8.99504 9.55167 8.99504 10.0842C8.99504 10.6274 9.41375 10.7603 9.88223 10.7603C11.0152 10.7603 11.056 9.85883 11.056 9.54141V8.99837Z" fill="black"/>
<path fill-rule="evenodd" clip-rule="evenodd" d="M13.1171 4.27649H14.566V7.03115H14.5968C14.964 6.43782 15.5966 6.15078 16.1374 6.15078C17.6782 6.15078 18.0657 7.02139 18.0657 8.33241V11.5895H16.6163V8.59889C16.6163 7.728 16.3622 7.29799 15.6883 7.29799C14.9024 7.29799 14.566 7.73834 14.566 8.81415V11.5895H13.1171V4.27649Z" fill="black"/>
<path fill-rule="evenodd" clip-rule="evenodd" d="M20.1473 5.47488H18.6983V4.27649H20.1473V5.47488ZM18.6983 6.29427H20.1473V11.5895H18.6983V6.29427Z" fill="black"/>
<path fill-rule="evenodd" clip-rule="evenodd" d="M20.8026 4.27649H22.2517V6.93964H22.2722C22.6285 6.39655 23.2822 6.15078 23.9348 6.15078C24.9861 6.15078 26.1182 7.0007 26.1182 8.93731C26.1182 10.8834 24.9861 11.7331 23.9348 11.7331C23.1596 11.7331 22.5171 11.4974 22.2008 10.9138H22.18V11.5895H20.8026V4.27649ZM23.4351 7.24667C22.5778 7.24667 22.2007 8.05559 22.2007 8.94715C22.2007 9.82832 22.5778 10.6371 23.4351 10.6371C24.292 10.6371 24.6695 9.82832 24.6695 8.94715C24.6695 8.05559 24.292 7.24667 23.4351 7.24667Z" fill="black"/>
<path fill-rule="evenodd" clip-rule="evenodd" d="M52.7227 11.5895H51.274V10.3913H52.7227V11.5895Z" fill="black"/>
<path fill-rule="evenodd" clip-rule="evenodd" d="M26.5225 6.29428H27.9713V11.5895H26.5225V6.29428Z" fill="black"/>
<path fill-rule="evenodd" clip-rule="evenodd" d="M28.6268 6.29427H30.0036V7.03115H30.0348C30.402 6.43782 31.0343 6.15079 31.6472 6.15079C33.1875 6.15079 33.5751 7.02139 33.5751 8.33241V11.5895H32.1264V8.59889C32.1264 7.728 31.8711 7.298 31.1976 7.298C30.4124 7.298 30.0754 7.73834 30.0754 8.81416V11.5895H28.6268V6.29427Z" fill="black"/>
<path fill-rule="evenodd" clip-rule="evenodd" d="M38 10.9138H37.98C37.6425 11.4872 37.0509 11.7331 36.3774 11.7331C34.7859 11.7331 34.0104 10.3608 34.0104 8.89602C34.0104 7.47218 34.7956 6.15078 36.3469 6.15078C36.969 6.15078 37.5813 6.41667 37.9085 6.93964H37.9285V4.27649H39.3773V11.5895H38V10.9138ZM36.7345 7.24667C35.7857 7.24667 35.4592 8.06606 35.4592 8.93731C35.4592 9.76672 35.8372 10.6371 36.7345 10.6371C37.6932 10.6371 37.98 9.79764 37.98 8.9267C37.98 8.06606 37.6737 7.24667 36.7345 7.24667Z" fill="black"/>
<path fill-rule="evenodd" clip-rule="evenodd" d="M41.2208 9.29543C41.2613 10.2173 41.71 10.6371 42.5161 10.6371C43.0981 10.6371 43.5671 10.2788 43.6594 9.95091H44.9345C44.526 11.2006 43.6594 11.7331 42.4656 11.7331C40.8024 11.7331 39.7724 10.5863 39.7724 8.94716C39.7724 7.3596 40.8636 6.15079 42.4656 6.15079C44.2609 6.15079 45.1289 7.66695 45.0265 9.29543H41.2208ZM43.5777 8.37336C43.4448 7.63605 43.1288 7.24667 42.4246 7.24667C41.5063 7.24667 41.2409 7.96364 41.2207 8.37336H43.5777Z" fill="black"/>
<path fill-rule="evenodd" clip-rule="evenodd" d="M45.3734 6.29427H46.7511V7.03115H46.782C47.1485 6.43782 47.7813 6.15079 48.3938 6.15079C49.9341 6.15079 50.3222 7.02139 50.3222 8.33241V11.5895H48.8727V8.59889C48.8727 7.728 48.6178 7.298 47.9443 7.298C47.1587 7.298 46.8221 7.73834 46.8221 8.81416V11.5895H45.3734V6.29427Z" fill="black"/>
<path fill-rule="evenodd" clip-rule="evenodd" d="M57.1684 8.15132C57.0764 7.55668 56.6993 7.23922 56.0967 7.23922C55.1683 7.23922 54.8619 8.18159 54.8619 8.96028C54.8619 9.71822 55.1582 10.6299 56.0662 10.6299C56.74 10.6299 57.1275 10.1997 57.2194 9.55434H58.6177C58.4334 10.9577 57.4645 11.7257 56.0768 11.7257C54.4847 11.7257 53.4131 10.5988 53.4131 9.01157C53.4131 7.36262 54.3934 6.1438 56.1076 6.1438C57.3523 6.1438 58.4949 6.79867 58.5867 8.15132H57.1684Z" fill="black"/>
<path fill-rule="evenodd" clip-rule="evenodd" d="M61.6882 6.1438C63.3509 6.1438 64.4218 7.24946 64.4218 8.93959C64.4218 10.6201 63.3509 11.7257 61.6882 11.7257C60.0345 11.7257 58.9637 10.6201 58.9637 8.93959C58.9637 7.24946 60.0345 6.1438 61.6882 6.1438ZM61.6882 10.6299C62.6779 10.6299 62.9734 9.77982 62.9734 8.9396C62.9734 8.0895 62.6779 7.23922 61.6882 7.23922C60.7083 7.23922 60.412 8.0895 60.412 8.9396C60.412 9.77982 60.7083 10.6299 61.6882 10.6299Z" fill="black"/>
<path fill-rule="evenodd" clip-rule="evenodd" d="M64.8239 6.28663H66.1911V7.00367H66.2117C66.5889 6.46099 67.1397 6.1438 67.8236 6.1438C68.4866 6.1438 69.0786 6.389 69.3646 7.02378C69.6704 6.56331 70.2213 6.1438 70.9563 6.1438C72.0779 6.1438 72.8842 6.66584 72.8842 8.03818V11.5823H71.4353V8.58125C71.4353 7.87423 71.3744 7.29098 70.548 7.29098C69.7312 7.29098 69.5785 7.9667 69.5785 8.63264V11.5823H68.1298V8.61255C68.1298 7.99744 68.1706 7.29098 67.2514 7.29098C66.9667 7.29098 66.2729 7.47493 66.2729 8.50977V11.5823H64.8239V6.28663Z" fill="black"/>
</g>
<defs>
<clipPath id="clip0_3927_15403">
<rect width="75" height="16" fill="white"/>
</clipPath>
</defs>
</svg>
