<svg width="105" height="24" viewBox="0 0 105 24" fill="none" xmlns="http://www.w3.org/2000/svg">
<g id="SahiDeko Logo">
<g id="Vector">
<path d="M31.6484 21.2007C30.7037 20.4311 30.2254 19.3581 30.2139 17.9824H33.0829C33.0944 18.752 33.3187 19.2885 33.7565 19.5919C34.1937 19.8953 34.8674 20.0466 35.7769 20.0466C37.1877 20.0466 37.8931 19.5682 37.8931 18.6121C37.8931 18.1925 37.7384 17.8803 37.4296 17.6763C37.1208 17.4722 36.5289 17.2884 35.6539 17.1256L34.6397 16.933C31.8639 16.4668 30.4767 15.1661 30.4767 13.0322C30.4767 11.9011 30.8997 11.0031 31.745 10.3382C32.5903 9.67335 33.789 9.34091 35.3397 9.34091C36.9958 9.34091 38.2607 9.69092 39.1357 10.3903C40.0101 11.0903 40.477 12.093 40.5351 13.3991H37.7364C37.7012 12.793 37.5006 12.3498 37.133 12.0694C36.7654 11.7896 36.1857 11.6498 35.3924 11.6498C34.1214 11.6498 33.4856 12.0694 33.4856 12.9093C33.4856 13.3289 33.6403 13.6498 33.9491 13.8714C34.2579 14.0931 34.8093 14.2796 35.6019 14.4309L36.6512 14.6235C38.1553 14.8917 39.2486 15.3262 39.931 15.9269C40.6135 16.5276 40.954 17.3587 40.954 18.4195C40.954 19.6905 40.4878 20.6642 39.5547 21.3406C38.6215 22.0169 37.3276 22.3555 35.6715 22.3555C33.9336 22.3555 32.593 21.9703 31.6484 21.2007Z" fill="#FFE800"/>
<path d="M50.2827 20.4135V15.6208C50.2827 13.7667 48.9414 12.8397 46.2596 12.8397C43.5777 12.8397 42.102 13.8836 41.9392 15.9708H44.6508C44.6974 15.5161 44.8345 15.2039 45.0616 15.035C45.2893 14.8661 45.6825 14.7816 46.242 14.7816C47.163 14.7816 47.6238 15.085 47.6238 15.6911C47.6238 16.2039 47.2333 16.5012 46.4522 16.583L45.0352 16.7053C42.6797 16.9033 41.502 17.8425 41.502 19.5216C41.502 20.3845 41.802 21.0608 42.4027 21.5507C43.0034 22.0406 43.7994 22.2852 44.7906 22.2852C46.1082 22.2852 47.0704 21.8771 47.6772 21.0608C47.6887 21.4689 47.7644 21.8075 47.9049 22.075H50.6509C50.4063 21.725 50.2833 21.1716 50.2833 20.4135H50.2827ZM47.6238 18.5249C47.6238 19.1662 47.4427 19.6473 47.0812 19.9682C46.7197 20.2892 46.2299 20.4493 45.6116 20.4493C45.192 20.4493 44.8649 20.3561 44.6318 20.1696C44.3987 19.9831 44.2818 19.7324 44.2818 19.4175C44.2818 18.7878 44.719 18.4263 45.594 18.3331L46.7136 18.2108C47.1569 18.1526 47.4603 18.0357 47.6231 17.8607V18.5256L47.6238 18.5249Z" fill="#FFE800"/>
<path d="M59.1998 13.7052C59.7654 14.2823 60.0485 15.1019 60.0485 16.1627V22.075H57.3193V16.7046C57.3193 15.6782 56.8355 15.1654 55.8673 15.1654C55.3774 15.1654 54.9693 15.3289 54.6429 15.6553C54.3166 15.9816 54.153 16.4425 54.153 17.0371V22.075H51.4246V9.62065H54.153V14.2383C54.8409 13.3052 55.7625 12.839 56.9166 12.839C57.8727 12.839 58.6336 13.1275 59.1991 13.7052H59.1998Z" fill="#FFE800"/>
<path d="M60.9411 22.0757V13.0498H63.6702V22.0757H60.9411ZM61.0107 12.0173V9.70849H63.6168V12.0173H61.0107Z" fill="#FFE800"/>
<path d="M74.5077 11.2741C73.4117 10.172 71.8373 9.62132 69.7846 9.62132H64.677V22.0757H69.7846C71.8373 22.0757 73.411 21.525 74.5077 20.423C75.6036 19.3209 76.1523 17.7959 76.1523 15.8485C76.1523 13.9012 75.6043 12.3761 74.5077 11.2741ZM72.2076 18.6385C71.6305 19.2621 70.8055 19.5743 69.7325 19.5743H67.6338V12.1227H69.7325C70.8055 12.1227 71.6305 12.4349 72.2076 13.0586C72.7846 13.6822 73.0732 14.6127 73.0732 15.8485C73.0732 17.0844 72.7846 18.0148 72.2076 18.6385Z" fill="#FFE800"/>
<path d="M85.8005 17.8249C85.8005 16.3087 85.3809 15.0958 84.541 14.1863C83.6782 13.2883 82.5471 12.8397 81.1477 12.8397C79.7483 12.8397 78.6111 13.2714 77.7719 14.1343C76.9206 14.9857 76.4949 16.1283 76.4949 17.5628C76.4949 18.9973 76.9266 20.1284 77.7895 20.9912C78.6524 21.8541 79.7835 22.2859 81.1828 22.2859C82.291 22.2859 83.241 22.0149 84.0343 21.4723C84.8275 20.9304 85.3465 20.1926 85.5911 19.2594H83.0018C82.6754 19.9358 82.0687 20.2736 81.1828 20.2736C80.6234 20.2736 80.1625 20.1101 79.801 19.7838C79.4395 19.4574 79.2118 18.9851 79.1186 18.3668H85.8005V17.8249ZM79.1362 16.6357C79.3341 15.4465 79.9929 14.8512 81.1126 14.8512C81.6606 14.8512 82.1099 15.0086 82.4592 15.3235C82.8092 15.6384 83.0309 16.0756 83.1241 16.6357H79.1355H79.1362Z" fill="#FFE800"/>
<path d="M92.5257 22.0757L90.1993 18.3499L88.9749 19.6094V22.0757H86.2985V9.62132H88.9749V16.6181L92.3163 13.0498H95.4474L92.0541 16.5485L95.64 22.0764H92.5264L92.5257 22.0757Z" fill="#FFE800"/>
<path d="M102.749 14.1167C101.898 13.2653 100.749 12.8397 99.3029 12.8397C97.8569 12.8397 96.7083 13.2653 95.8569 14.1167C94.994 14.9796 94.5623 16.1283 94.5623 17.5628C94.5623 18.9973 94.994 20.1284 95.8569 20.9912C96.7198 21.8541 97.8684 22.2859 99.3029 22.2859C100.737 22.2859 101.886 21.8541 102.749 20.9912C103.6 20.1399 104.026 18.9973 104.026 17.5628C104.026 16.1283 103.6 14.9681 102.749 14.1167ZM100.755 19.452C100.417 19.8838 99.9327 20.0993 99.3029 20.0993C98.6732 20.0993 98.1718 19.8838 97.8333 19.452C97.4948 19.0209 97.3259 18.3905 97.3259 17.5628C97.3259 16.735 97.4948 16.1053 97.8333 15.6735C98.1711 15.2418 98.661 15.0262 99.3029 15.0262C99.9448 15.0262 100.416 15.2418 100.755 15.6735C101.094 16.1053 101.262 16.735 101.262 17.5628C101.262 18.3905 101.094 19.0202 100.755 19.452Z" fill="#FFE800"/>
<path d="M9.44049 3.7097L12.9509 0.190978C13.078 0.0638723 13.2428 0 13.4095 0C13.5762 0 13.741 0.0638723 13.8675 0.190978L26.2523 12.6103C27.2398 13.5997 26.9038 14.4026 25.5063 14.3943L23.8673 14.384C23.5096 14.3815 23.2184 14.6695 23.2184 15.0272L23.1864 23.3543C23.1839 23.71 22.8945 24 22.5369 24H4.28217C3.92449 24 3.63515 23.7107 3.63323 23.3543L3.60129 15.0272C3.60129 14.6695 3.31004 14.3815 2.95171 14.384L1.31275 14.3943C-0.0847747 14.4026 -0.420104 13.5997 0.566723 12.6103L9.44113 3.71034L9.44049 3.7097Z" fill="#FFE800"/>
<path d="M13.4957 22.3542C11.7724 22.3542 10.4177 21.9627 9.46984 21.1905C8.51048 20.4087 8.01802 19.3075 8.00589 17.9177L8.00397 17.7165H11.1823L11.1854 17.9132C11.1957 18.5877 11.3866 19.0584 11.7526 19.312C12.1403 19.5809 12.7612 19.7176 13.5973 19.7176C15.4496 19.7176 15.4496 18.8215 15.4496 18.527C15.4496 18.1885 15.332 17.9464 15.09 17.7867C14.814 17.6047 14.2596 17.4348 13.4421 17.2821L12.4584 17.0956C9.67423 16.6281 8.26074 15.2893 8.26074 13.1183C8.26074 11.9629 8.70018 11.0316 9.56629 10.3501C10.4177 9.68071 11.6319 9.34091 13.1738 9.34091C14.8179 9.34091 16.0979 9.69796 16.978 10.4018C17.8684 11.1146 18.35 12.1449 18.4094 13.4651L18.419 13.6734H15.309L15.2982 13.4856C15.2675 12.9542 15.1021 12.5805 14.7917 12.3442C14.473 12.1015 13.946 11.9782 13.2255 11.9782C11.577 11.9782 11.577 12.7472 11.577 12.9995C11.577 13.3412 11.6964 13.5935 11.943 13.7698C12.2176 13.9665 12.7299 14.1377 13.4663 14.2789L14.4819 14.4654C15.9688 14.7305 17.0706 15.1712 17.7566 15.7748C18.4599 16.3937 18.8163 17.2572 18.8163 18.3405C18.8163 19.6346 18.3321 20.6412 17.3772 21.3336C16.4421 22.0112 15.1366 22.3549 13.4963 22.3549L13.4957 22.3542Z" fill="black"/>
<path d="M10.7818 5.57606C10.2613 5.68912 10.1188 5.83027 10.0013 6.35019C9.99107 6.39554 9.92592 6.39554 9.91634 6.35019C9.80329 5.82963 9.66213 5.6872 9.14221 5.56967C9.09686 5.55945 9.09686 5.49431 9.14221 5.48472C9.66277 5.37167 9.80521 5.23051 9.92273 4.71059C9.93295 4.66524 9.9981 4.66524 10.0077 4.71059C10.1207 5.23115 10.2619 5.37359 10.7818 5.49111C10.8272 5.50133 10.8272 5.56648 10.7818 5.57606Z" fill="black"/>
<path d="M13.2524 7.35871C12.4578 7.52223 12.2656 7.71257 12.095 8.5065C12.0848 8.5544 12.0158 8.5544 12.0062 8.5065C11.8427 7.71193 11.6524 7.51967 10.8585 7.34913C10.8106 7.33891 10.8106 7.26993 10.8585 7.26035C11.653 7.09684 11.8453 6.9065 12.0158 6.11257C12.026 6.06466 12.095 6.06466 12.1046 6.11257C12.2681 6.90714 12.4585 7.09939 13.2524 7.26993C13.3003 7.28015 13.3003 7.34913 13.2524 7.35871Z" fill="black"/>
<path d="M10.0473 8.9632C8.9065 9.19123 8.6491 9.44672 8.41149 10.5856C8.4 10.6405 8.32207 10.6398 8.31057 10.5856C8.08255 9.4448 7.82706 9.18739 6.68822 8.94979C6.63329 8.93829 6.63393 8.86037 6.68822 8.84887C7.82898 8.62085 8.08638 8.36536 8.32399 7.22652C8.33549 7.17159 8.41341 7.17223 8.42491 7.22652C8.65293 8.36728 8.90842 8.62468 10.0473 8.86229C10.1022 8.87378 10.1016 8.95171 10.0473 8.9632Z" fill="black"/>
<path d="M14.2341 5.07081C13.299 4.358 12.9075 4.32989 11.8791 4.89963C11.8172 4.93412 11.7514 4.85876 11.7948 4.80191C12.5076 3.86682 12.5357 3.47528 11.966 2.44694C11.9315 2.38498 12.0069 2.31919 12.0637 2.36263C12.9988 3.07544 13.3904 3.10355 14.4187 2.53381C14.4807 2.49931 14.5464 2.57468 14.503 2.63153C13.7902 3.56662 13.7621 3.95816 14.3318 4.9865C14.3663 5.04846 14.291 5.11424 14.2341 5.07081Z" fill="black"/>
<path d="M14.4282 5.42852L21.4714 13.5614C21.7378 13.8686 22.2072 13.8897 22.4998 13.6067C22.793 13.3231 22.7859 12.8511 22.4851 12.5752L14.5483 5.31164C14.4704 5.2401 14.3586 5.34868 14.4282 5.42852Z" fill="black"/>
</g>
</g>
</svg>
